# xmcd
#
# Track frame offsets: 
#        150
#        12447
#        23637
#        34802
#        46525
#        58060
#        75015
#        87915
#        100747
#        119755
#        133932
#        147535
#        158382
#        171477
#        185165
#        197385
#        211717
#        224130
#        236627
#        254497
#        267272
#
# Disc length: 3672 seconds
#
# Revision: 7
# Processed by: cddbd v1.5.2PL0 Copyright (c) Steve Scherf et al.
# Submitted via: ExactAudioCopyFreeDBPlugin 1.0
#
DISCID=290e5615
DTITLE=Various Artist - The Best Of The Blues
DYEAR=1900
DGENRE=Blues
TTITLE0=Joe Turner - Stormy Monday Blues
TTITLE1=B B King - Catfish Blues
TTITLE2=Roy Milton - Information Blues
TTITLE3=Billie Holiday - Nice Work If You Can Get It
TTITLE4=John Lee Hooker - Boom Boom
TTITLE5=Johnny Otis - Barrelhouse Blues
TTITLE6=John Lee Hooker - Frisco Blues
TTITLE7=B B King - Lease Love Me
TTITLE8=Johnny Otis - Slo Fuse
TTITLE9=Billie Holiday - God Bless The Child
TTITLE10=John Lee Hooker - Trouble Blues
TTITLE11=Ray Charles - Hey Now
TTITLE12=Bo Diddley - Cracklin'
TTITLE13=Louis Jordan - I Got The Walkin' Blues
TTITLE14=John Lee Hooker - I'm Mad Again
TTITLE15=Ray Charles - Walkin' And Talkin'
TTITLE16=Bo Diddley - Can I Go Home With You
TTITLE17=Ray Charles - C.C. Rider
TTITLE18=John Lee Hooker - Wednesday Evening Blues
TTITLE19=B B King - Ayin' The Cost To Be The Boss
TTITLE20=Billie Holiday - Miss Brown To You
EXTD=ID3G:   0
EXTT0=Joe Turner\n
EXTT1=B.B. King\n
EXTT2=Roy milton\n
EXTT3=Billie Holiday\n
EXTT4=John Lee Hooker\n
EXTT5=Johnny Otis\n
EXTT6=John Lee Hooker\n
EXTT7=B.B.King\n
EXTT8=Johnny Otis\n
EXTT9=Billie Holiday\n
EXTT10=John Lee Hooker\n
EXTT11=Ray Charies\n
EXTT12=Bo Diddley\n
EXTT13=Louis Jordan\n
EXTT14=John Lee Hooker\n
EXTT15=Ray Charies\n
EXTT16=Bo Diddley\n
EXTT17=Ray Charies\n
EXTT18=John Lee Hooker\n
EXTT19=B.B. King\n
EXTT20=Billie Holiday\n
PLAYORDER=
